<svg width="20" height="20" viewBox="0 0 20 13" fill="none" xmlns="http://www.w3.org/2000/svg">
<path fill-rule="evenodd" clip-rule="evenodd" d="M10.1398 0.333313C5.97316 0.333313 2.41483 2.92498 0.973164 6.58331C2.41483 10.2416 5.97316 12.8333 10.1398 12.8333C14.3065 12.8333 17.8648 10.2416 19.3065 6.58331C17.8648 2.92498 14.3065 0.333313 10.1398 0.333313ZM10.1398 10.75C7.83983 10.75 5.97316 8.88331 5.97316 6.58331C5.97316 4.28331 7.83983 2.41665 10.1398 2.41665C12.4398 2.41665 14.3065 4.28331 14.3065 6.58331C14.3065 8.88331 12.4398 10.75 10.1398 10.75ZM10.1398 4.08331C8.7565 4.08331 7.63983 5.19998 7.63983 6.58331C7.63983 7.96665 8.7565 9.08331 10.1398 9.08331C11.5232 9.08331 12.6398 7.96665 12.6398 6.58331C12.6398 5.19998 11.5232 4.08331 10.1398 4.08331Z" fill="#181C43"/>
</svg>
